<svg width="24" height="20" viewBox="0 0 35 30" fill="none" xmlns="http://www.w3.org/2000/svg">
<path d="M6.45716 30C6.01019 30 5.60266 29.8621 5.23456 29.5863C4.86647 29.3095 4.61669 28.9474 4.48523 28.5L0.0680917 12.5526C-0.0633707 12.1842 -0.00447548 11.8421 0.244777 11.5263C0.495082 11.2105 0.830574 11.0526 1.25125 11.0526H9.21787L16.1591 0.710526C16.2905 0.5 16.4746 0.328947 16.7112 0.197368C16.9479 0.0657895 17.1976 0 17.4606 0C17.7235 0 17.9733 0.0657895 18.2099 0.197368C18.4465 0.328947 18.6306 0.5 18.762 0.710526L25.7033 11.0526H33.7487C34.1694 11.0526 34.5049 11.2105 34.7552 11.5263C35.0045 11.8421 35.0634 12.1842 34.9319 12.5526L30.5148 28.5C30.3833 28.9474 30.1335 29.3095 29.7654 29.5863C29.3973 29.8621 28.9898 30 28.5428 30H6.45716ZM13.0434 11.0526H21.9171L17.4606 4.42105L13.0434 11.0526ZM17.5 23.6842C18.3677 23.6842 19.1107 23.3753 19.7291 22.7574C20.3464 22.1384 20.6551 21.3947 20.6551 20.5263C20.6551 19.6579 20.3464 18.9142 19.7291 18.2953C19.1107 17.6774 18.3677 17.3684 17.5 17.3684C16.6323 17.3684 15.8899 17.6774 15.2725 18.2953C14.6541 18.9142 14.3449 19.6579 14.3449 20.5263C14.3449 21.3947 14.6541 22.1384 15.2725 22.7574C15.8899 23.3753 16.6323 23.6842 17.5 23.6842Z"/>
</svg>
