<svg width="24" height="20" viewBox="0 0 24 21" fill="none" xmlns="http://www.w3.org/2000/svg">
<path d="M4.42777 20.5532C4.12127 20.5532 3.84182 20.4587 3.58941 20.2698C3.33701 20.0801 3.16573 19.832 3.07558 19.5255L0.0466914 8.59989C-0.0434542 8.34748 -0.0030689 8.11311 0.167847 7.89676C0.339484 7.68041 0.569536 7.57223 0.858002 7.57223H6.32083L11.0805 0.486786C11.1707 0.342553 11.2969 0.225364 11.4591 0.135218C11.6214 0.0450728 11.7927 0 11.973 0C12.1532 0 12.3245 0.0450728 12.4868 0.135218C12.649 0.225364 12.7753 0.342553 12.8654 0.486786L17.6251 7.57223H23.142C23.4305 7.57223 23.6605 7.68041 23.8322 7.89676C24.0031 8.11311 24.0435 8.34748 23.9533 8.59989L20.9244 19.5255C20.8343 19.832 20.663 20.0801 20.4106 20.2698C20.1582 20.4587 19.8787 20.5532 19.5722 20.5532H4.42777ZM8.94406 7.57223H15.0289L11.973 3.02889L8.94406 7.57223ZM12 16.2262C12.595 16.2262 13.1045 16.0145 13.5285 15.5912C13.9518 15.1672 14.1635 14.6577 14.1635 14.0627C14.1635 13.4678 13.9518 12.9583 13.5285 12.5342C13.1045 12.1109 12.595 11.8992 12 11.8992C11.405 11.8992 10.8959 12.1109 10.4726 12.5342C10.0485 12.9583 9.83651 13.4678 9.83651 14.0627C9.83651 14.6577 10.0485 15.1672 10.4726 15.5912C10.8959 16.0145 11.405 16.2262 12 16.2262Z"/>
</svg>
