<svg width="24" height="20" viewBox="0 0 24 20" fill="none" xmlns="http://www.w3.org/2000/svg">
<path d="M11.9727 0.75C12.0253 0.75 12.0747 0.761226 12.1299 0.791016C12.1927 0.824959 12.2198 0.856168 12.2344 0.878906L12.2412 0.889648L12.248 0.899414L17.0078 7.79492L17.2314 8.11816H23.1416C23.1923 8.11816 23.214 8.12676 23.2188 8.12891C23.2209 8.12989 23.2259 8.13425 23.2363 8.14453L23.2324 8.16309L20.2061 18.7832C20.1633 18.9244 20.0896 19.0296 19.9688 19.1182C19.8421 19.2103 19.7168 19.25 19.5723 19.25H4.42773C4.31927 19.25 4.2215 19.2279 4.12598 19.1777L4.03125 19.1182C3.94067 19.0518 3.87656 18.976 3.83203 18.8828L3.79395 18.7832L0.767578 8.16309L0.762695 8.14453C0.773418 8.13384 0.779072 8.1299 0.78125 8.12891C0.786005 8.12676 0.807683 8.11816 0.858398 8.11816H6.71484L6.93848 7.79492L11.6973 0.899414L11.7051 0.889648L11.7119 0.878906C11.7265 0.856202 11.7529 0.824841 11.8154 0.791016C11.8707 0.761156 11.92 0.750043 11.9727 0.75ZM12 10.8291C11.2113 10.8291 10.5137 11.1099 9.94922 11.6592C9.38373 12.2095 9.08691 12.8982 9.08691 13.6846C9.087 14.4707 9.3839 15.1588 9.94922 15.709C10.5137 16.2583 11.2113 16.5391 12 16.5391C12.7885 16.5391 13.4858 16.2586 14.0508 15.71L14.0518 15.709C14.6164 15.1586 14.913 14.4704 14.9131 13.6846C14.9131 12.8987 14.6164 12.2106 14.0518 11.6602L14.0508 11.6592L13.833 11.4658C13.3102 11.0443 12.6901 10.8291 12 10.8291Z"/>
</svg>
