<svg width="24" height="20" viewBox="0 0 36 30" fill="none" xmlns="http://www.w3.org/2000/svg">
<path d="M17.959 0.75C18.1018 0.75 18.2367 0.783734 18.373 0.857422C18.517 0.935249 18.6073 1.02329 18.667 1.11621L18.6738 1.12598L18.6807 1.13672L25.8203 11.4785L26.0439 11.8027H34.7129C34.9352 11.8027 35.0611 11.8702 35.166 11.998V11.999C35.2632 12.1187 35.2657 12.1847 35.2256 12.2939L35.2158 12.3203L35.209 12.3467L30.665 28.293C30.5765 28.5789 30.4176 28.8015 30.1729 28.9805C29.9203 29.1641 29.6558 29.25 29.3584 29.25H6.6416C6.34395 29.25 6.07893 29.1645 5.82617 28.9805H5.82715C5.58233 28.8015 5.42251 28.5791 5.33398 28.293L0.791016 12.3467L0.78418 12.3203L0.774414 12.2939L0.75293 12.2188C0.741367 12.1484 0.761103 12.0888 0.833984 11.999L0.833008 11.998C0.937972 11.8699 1.06451 11.8027 1.28711 11.8027H9.875L10.0986 11.4785L17.2383 1.13672L17.2451 1.12598L17.252 1.11621C17.3116 1.02339 17.4012 0.935188 17.5449 0.857422C17.6812 0.783723 17.8162 0.75007 17.959 0.75ZM18 16.6182C16.9138 16.6182 15.9617 17.0026 15.1855 17.7578C14.4081 18.5144 14.0049 19.4506 14.0049 20.5264C14.0049 21.6021 14.4081 22.5383 15.1855 23.2949C15.9617 24.0502 16.9138 24.4346 18 24.4346C19.0862 24.4346 20.0384 24.0498 20.8154 23.2949H20.8164C21.5927 22.5382 21.9951 21.6018 21.9951 20.5264C21.9951 19.451 21.5928 18.5146 20.8164 17.7578L20.8154 17.7568L20.668 17.6201C19.9191 16.9558 19.0184 16.6182 18 16.6182Z"/>
</svg>
