<svg width="161" height="33" viewBox="0 0 161 33" fill="none" xmlns="http://www.w3.org/2000/svg">
<path d="M37.9658 32.6305C38.3093 32.5446 38.0825 31.969 37.9376 31.8227C37.5552 31.4389 36.7393 31.3517 36.2415 31.1773C35.5008 30.9156 34.4716 30.5466 34.23 29.6959C33.8999 28.5298 34.0583 27.1772 34.061 25.9775C34.0677 22.8148 34.0744 19.652 34.0811 16.4892C34.0932 10.789 34.1093 7.67717 34.1294 7.15518C34.1831 5.76098 33.9147 4.26346 34.218 2.89207C34.5293 1.47908 36.5729 1.74209 37.6438 1.31135C38.0047 1.16509 38.1738 1.11946 38.1738 0.716904C38.1738 0.134533 37.3942 0.170765 36.9446 0.170765H30.4822C30.034 0.170765 29.7737 0.189552 29.6999 0.22578C28.5298 0.814861 28.2654 1.97155 27.828 3.12556C25.5857 9.03648 23.4951 15.0051 21.2394 20.9107C21.1562 21.1294 20.7738 22.062 20.4652 21.7507C19.5782 20.8597 19.1649 19.3098 18.651 18.1719C16.1014 12.5267 13.7438 6.7969 11.1902 1.15435C10.7608 0.205654 9.71951 0.088913 8.80301 0.0808601C6.76874 0.0620766 4.73716 0.0473137 2.70423 0.000350952C2.32985 -0.00904465 1.2832 0.378754 1.79445 0.892689C2.28154 1.38247 3.20475 1.3865 3.83811 1.56899C4.57211 1.77966 5.63353 1.86689 6.13404 2.48817C6.13404 2.5499 6.31117 2.72031 6.3474 2.79411C6.75398 3.61265 6.43194 4.85522 6.35143 5.73549C6.03743 9.22166 5.52349 12.6783 5.341 16.1792C5.14374 19.9566 4.97735 23.7286 4.89684 27.5113C4.87135 28.7284 4.71301 30.2232 3.40334 30.662C2.34327 31.0176 1.23489 31.1478 0.202992 31.5933C0.11577 31.6308 -0.0533046 32.232 0.0164724 32.2857C0.357307 32.5513 1.02153 32.6399 1.44019 32.6158C4.90892 32.4091 8.3924 32.4816 11.8625 32.6211C12.4542 32.6439 13.0608 31.875 12.3804 31.5329C11.6115 31.1464 10.6655 31.1317 9.85235 30.8351C9.00429 30.5251 8.11598 30.0514 8.01937 29.0732C7.39406 22.7785 7.7832 16.453 7.97374 10.1489C7.9885 9.66984 8.0301 9.09284 8.24346 8.66344C8.27835 8.59232 8.56953 9.02306 8.61784 9.11296C8.96001 9.74096 9.1935 10.4213 9.48737 11.0721C9.93555 12.0637 10.3703 13.1131 10.7715 14.1342C11.786 16.716 13.0218 19.2427 14.0376 21.8365C14.1289 22.066 14.1946 22.3008 14.2926 22.5316C14.6643 23.3985 14.883 23.9285 14.9528 24.1244C15.7686 26.4338 16.72 28.7042 17.6097 30.9881C17.6795 31.1692 17.709 31.337 17.8177 31.4993C17.9505 31.7006 18.074 31.8589 18.188 31.973C18.498 32.2857 18.9287 31.7744 19.0589 31.5288C19.8533 30.0206 20.3659 28.3822 21.0059 26.8068C21.0059 26.5599 21.2609 26.2003 21.3401 25.9561C22.0325 23.8386 22.9382 21.7762 23.7165 19.6882C23.7165 19.3299 24.0547 18.7731 24.1875 18.4376C25.1349 16.0558 25.9668 13.6337 26.9477 11.2707C27.3087 10.3998 27.6254 9.50747 27.9823 8.63392C28.0749 8.40312 28.3929 8.86875 28.3969 8.97475C28.6412 15.6009 28.5043 22.2378 28.3969 28.8652C28.3876 29.3966 28.2869 30.0984 27.9018 30.4849C27.9018 30.6727 27.255 30.8767 27.1235 30.917C26.4499 31.1209 25.6488 31.2202 25.0235 31.5356C24.676 31.71 24.4868 32.1837 24.7726 32.4708C24.8343 32.5339 24.8853 32.6225 24.9765 32.6211C29.198 32.5795 33.4128 32.6641 37.6344 32.6641C37.7659 32.6641 37.8759 32.6533 37.9658 32.6305Z" fill="#231F20"/>
<path d="M53.7292 30.989C53.8298 30.6898 53.7694 30.4348 53.2448 30.4348C51.8774 30.4348 52.0438 28.5589 52.0438 27.6558C52.0438 23.967 52.0706 20.2782 52.0854 16.5895C52.0894 15.4596 51.8063 14.0453 50.8307 13.3502C46.7246 10.4276 40.2381 12.957 38.283 17.3409C37.922 18.1514 37.9837 18.9189 38.9324 19.19C40.1186 19.5268 41.3089 18.3191 41.69 17.3315C42.2562 15.8675 42.7661 14.1607 44.4287 13.6628C45.7478 13.2683 47.5861 14.0104 47.9363 15.4207C48.2168 16.5452 48.2262 17.7059 48.2262 18.8559C48.2262 19.9642 47.7391 20.611 46.7582 21.0995C46.1852 21.3853 45.6002 21.6376 45.0151 21.8965C44.8594 21.965 44.4327 22.173 43.7336 22.5218C41.8698 23.4504 39.6329 24.9721 38.9391 27.048C38.2776 29.0218 38.5352 32.0598 40.9425 32.7455C43.5297 33.4822 45.5277 31.3741 47.6505 30.3167C48.1403 30.0725 48.4436 30.569 48.7334 31.0159C48.8287 31.1809 48.9387 31.3285 49.0662 31.464C50.0793 32.351 51.1622 32.5952 52.3162 32.1967C52.3336 32.1913 52.3524 32.186 52.3699 32.1806C52.4343 32.1591 52.5483 32.1068 52.6678 32.0545C53.1401 31.9109 53.6111 31.2722 53.7292 30.989Z" fill="#231F20"/>
<path d="M44.5729 30.2656C43.1492 30.2656 42.6514 28.438 42.6514 27.3229C42.6514 25.7999 43.3572 24.56 44.4199 23.5013C45.0895 22.833 46.5039 22.0145 47.4834 22.0145C47.9276 22.0145 48.2308 22.4895 48.2241 22.884C48.1933 24.7049 48.2215 26.5218 47.7142 28.2904C47.4324 29.274 46.375 29.9825 45.4223 30.1932C45.2049 30.2415 44.9218 30.2656 44.5729 30.2656Z" fill="white"/>
<path d="M54.0953 31.9453C54.0631 32.313 54.3382 32.5867 54.6509 32.5719C57.0045 32.47 59.3514 32.4176 61.7091 32.4834C62.2458 32.4995 63.0134 32.1211 62.4458 31.5535C61.7856 30.896 60.8557 30.5471 61.0945 29.4695C61.3589 28.286 62.376 27.1092 63.114 26.1712C63.3985 25.8089 63.6588 25.5768 64.0426 25.3218C64.1245 25.2668 64.1204 25.2722 64.1902 25.342C65.3898 26.5389 66.2688 28.0029 67.1651 29.4333C67.1651 30.0385 67.6415 30.5538 66.9853 31.0207C66.458 31.3965 65.2811 32.0661 66.3278 32.588C66.6472 32.7477 67.1369 32.6605 67.4952 32.6605C73.8731 32.6753 80.2591 32.6135 86.6356 32.7424C87.0355 32.7504 87.1831 32.3492 87.1831 32.0218C87.1831 31.7279 86.5672 31.5468 86.3082 31.4971C84.9811 31.2448 83.2514 31.0167 82.5778 29.6749C82.3135 29.1488 82.4168 28.3558 82.3846 27.7681C82.2464 25.3004 82.2517 22.838 82.2517 20.3677C82.2517 17.009 82.3779 13.6691 82.4597 10.3131C82.4705 9.87025 82.5536 9.43951 82.6945 9.02085C82.7576 8.8303 83.0501 9.06647 83.0971 9.17516C85.1341 13.9133 87.0341 18.7105 89.0738 23.4473C90.1728 25.9981 91.0973 28.6403 92.0796 31.2381C92.2272 31.6286 92.462 32.2311 92.9303 32.2311C93.3852 32.2311 93.5918 31.638 93.773 31.277C94.766 29.2991 95.4369 27.1374 96.2608 25.0857C97.5235 21.9457 98.6359 18.7467 99.9214 15.6161C100.783 13.5161 101.477 11.3356 102.386 9.24896C102.459 9.08392 102.639 8.77797 102.797 8.93631C102.864 9.00206 102.965 9.06244 102.966 9.15906C102.994 11.2027 103.009 14.815 103.009 19.9987C103.009 23.195 102.994 25.4198 102.966 26.6731C102.942 27.76 103.048 28.9529 102.782 30.0103C102.432 31.4085 100.423 31.2113 99.3578 31.7427C98.7205 32.0594 99.1338 32.9302 99.7617 32.9128C102.048 32.843 104.339 32.8725 106.627 32.8725C108.479 32.8725 110.314 32.9195 112.163 33C112.179 33 112.24 32.9745 112.346 32.9208C112.763 32.7128 112.962 32.6216 112.721 32.1439C112.452 31.6071 111.177 31.4381 110.64 31.2583C109.992 31.0395 109.089 30.637 108.885 29.9258C108.59 28.8966 108.713 27.7412 108.713 26.6825V5.04221C108.713 4.10156 108.736 3.5259 108.783 3.31389C109.176 1.54799 111.661 2.27126 112.815 1.37623C113.025 1.21521 112.641 0.694565 112.496 0.622105C111.918 0.333603 110.929 0.426193 110.29 0.490601C108.374 0.681145 106.425 0.340313 104.505 0.549644C103.582 0.648941 103.044 1.497 102.739 2.2981C101.703 5.03819 100.717 7.79975 99.6356 10.5237C98.1649 14.2286 96.9063 18.0315 95.3819 21.7216C95.0679 22.4811 94.5875 21.4559 94.4533 21.1567C91.6891 14.9787 88.9906 8.7726 86.2344 2.59196C86.0318 2.13976 85.7862 1.70096 85.5635 1.25681C85.3555 0.840828 84.757 0.438271 84.2766 0.423508C81.8988 0.356415 79.521 0.322868 77.1446 0.254433C76.6199 0.241013 75.7745 0.958912 76.5085 1.32524C77.2962 1.71707 78.2302 1.78684 79.0715 2.03911C79.8605 2.27528 81.0078 2.59196 81.0078 3.593C81.0078 6.80543 80.2899 10.0004 80.0766 13.2034C80.0323 13.8583 79.8954 14.4997 79.8793 15.1572C79.7854 19.1909 79.5358 23.2326 79.3868 27.2662C79.3479 28.2847 79.411 30.0559 78.3321 30.594C77.9752 30.7712 77.6518 30.9107 77.2654 31.006C76.8386 31.112 76.3395 31.214 75.7678 31.3119C74.477 31.532 73.641 31.014 72.8345 30.0586C71.0136 27.9049 69.3027 25.5097 67.8307 23.1078C67.8307 22.9306 67.4912 22.512 67.4053 22.3402C66.9021 21.3378 67.8481 20.4616 68.4506 19.7021C69.6355 18.2126 71.0968 16.6762 72.6641 15.5879C73.4759 15.023 74.4622 14.8419 75.3867 14.5332C75.5263 14.4863 75.8121 13.9428 75.6766 13.8381C75.5397 13.7321 75.3062 13.5899 75.1318 13.5939C72.7902 13.6369 70.4527 13.6302 68.1098 13.5926C67.6415 13.5859 67.9662 14.2823 68.1782 14.4084C68.8706 14.8231 69.5 15.4336 69.1189 16.3219C68.5379 17.6745 67.4872 18.8259 66.6096 19.9973C66.2983 20.412 66.05 20.4549 65.736 20.004C64.7779 18.6232 63.7863 17.1767 63.0322 15.6752C62.5531 14.7184 64.2841 14.5721 64.5659 14.0099C64.8088 13.5228 63.7689 13.4396 63.4736 13.398C63.1838 13.3564 62.957 13.3363 62.796 13.3403C60.331 13.3833 57.8687 13.4007 55.4037 13.3376C54.9501 13.3269 54.4603 13.9321 55.0105 14.2085C56.3483 14.8781 57.7117 15.5047 58.5678 16.7996C59.3622 18.0006 60.1861 19.1774 60.967 20.3878C61.6474 21.4425 62.4847 22.5375 62.9289 23.7197C63.106 24.188 62.8591 24.4724 62.5706 24.8307C62.2364 25.248 61.6501 25.9431 60.8114 26.9187C60.4383 27.3534 60.0613 27.76 59.6815 28.1384C58.3531 29.4628 57.2541 30.7443 55.3822 31.2878C54.981 31.4797 54.2349 31.4461 54.0953 31.9453Z" fill="#231F20"/>
<path d="M116.98 32.9099C118.905 32.5315 120.292 31.238 121.999 30.3993C122.64 30.084 123.048 31.1964 123.476 31.5278C124.511 32.3302 125.964 32.8267 127.176 32.0337C127.627 31.7371 128.461 31.1923 128.135 30.5509C128.052 30.3886 127.417 30.4315 127.214 30.3309C126.904 30.1779 126.663 29.9149 126.567 29.5821C126.545 29.507 126.505 29.2601 126.447 28.8374C126.386 28.3878 126.434 27.9571 126.446 27.5036C126.514 24.5514 126.477 21.594 126.477 18.6419C126.477 17.1001 126.71 15.0108 125.495 13.8152C125.378 13.7011 125.221 13.5763 125.025 13.4408C121.835 11.2468 116.815 12.4465 114.201 15.0403C113.565 15.671 113.013 16.3781 112.609 17.1725C112.491 17.4033 112.391 17.6516 112.311 17.9159C112.135 18.4916 112.195 19.0646 112.837 19.2739C113.956 19.6402 115.39 18.8767 115.826 17.8099C116.484 16.1983 116.919 14.1896 118.937 13.8595C120.126 13.6649 121.681 14.1292 122.097 15.353C122.54 16.6599 122.767 18.3789 122.459 19.7355C122.267 20.5822 121.56 20.974 120.809 21.3135C118.287 22.4501 115.079 23.6564 113.63 26.1684C112.637 27.886 112.291 30.7388 114.052 32.1236C114.75 32.6724 115.417 32.9395 116.323 32.9395C116.66 32.9395 116.878 32.9301 116.98 32.9099Z" fill="#231F20"/>
<path d="M119.34 30.3281C117.624 30.3281 116.87 28.8132 116.87 27.274C116.87 24.7607 119.188 22.8164 121.465 22.1763C122.416 21.9106 122.533 22.8459 122.522 23.5302C122.499 24.9043 122.478 26.265 122.26 27.6256C122.035 29.0372 121.026 29.8088 119.73 30.2718C119.625 30.3093 119.495 30.3281 119.34 30.3281Z" fill="white"/>
<path d="M131.107 32.9149C132.636 32.825 134.16 32.6922 135.686 32.5728C135.757 32.5674 136.118 32.5701 136.769 32.5808C137.85 32.5996 138.917 32.6533 139.996 32.7351C140.123 32.7459 140.553 32.4802 140.553 32.3728C140.553 31.3772 138.819 31.5449 138.133 31.3195C137.095 30.9773 135.965 30.4969 136.009 29.1859C136.125 25.8621 136.141 22.5356 136.177 19.2104C136.194 17.6338 137.618 15.5753 139.332 16.7038C140.416 17.4177 141.307 18.306 142.705 17.8417C143.039 17.7304 143.389 17.4647 143.581 17.1762C143.793 16.8622 143.934 16.6193 144.007 16.4502C144.864 14.4562 143.023 12.4394 140.975 12.7789C139.146 13.0835 138.145 14.4133 136.695 15.3781C136.416 15.5633 136.279 15.4049 136.221 15.1191C136.009 14.0671 136.161 13.0526 135.813 12.0207C135.703 11.696 135.036 12.167 134.899 12.2824C133.737 13.27 132.595 14.2791 131.22 14.9648C130.823 15.1634 130.438 15.4156 130.122 15.731C129.913 15.939 130.375 16.4301 130.55 16.5361C131.197 16.9226 131.833 17.2782 131.99 18.0564C132.12 18.7113 132.149 19.4332 132.142 20.0974C132.116 22.7664 132.088 24.7899 132.057 26.1707C132.027 27.6065 132.236 29.3536 131.576 30.6673C131.008 31.7985 129.576 31.4926 128.779 32.2883C128.473 32.5942 128.934 32.9995 129.256 32.9901C130.097 32.9632 130.714 32.9377 131.107 32.9149Z" fill="#231F20"/>
<path d="M148.775 32.8985C150.039 32.6502 151.067 32.1363 152.131 31.4184C152.686 31.0453 153.505 30.3073 154.199 30.3073C154.641 30.3073 154.996 31.1688 155.324 31.4278C156.669 32.4852 158.817 32.9387 159.939 31.2882C159.939 31.1809 160.43 30.5529 160.099 30.471C159.186 30.2469 158.466 30.106 158.392 29.0191C158.378 28.8299 158.36 28.6407 158.36 28.4528C158.36 24.5561 158.385 20.6606 158.401 16.7652C158.404 15.8541 158.279 14.5565 157.584 13.8735C155.622 11.9452 152.6 11.9694 150.079 12.6658C148.265 13.1663 146.57 14.4223 145.388 15.8286C144.749 16.5894 144.164 17.5529 144.164 18.5593C144.164 19.139 145.189 19.3939 145.656 19.3067C146.956 19.0638 147.602 18.2761 148.014 17.0671C148.387 15.9654 149.008 14.1861 150.327 13.8976C151.873 13.5595 153.73 13.8668 154.174 15.6273C154.48 16.843 154.661 18.4868 154.384 19.716C154.203 20.5144 153.424 20.9451 152.709 21.2631C151.517 21.7918 150.563 22.2387 149.841 22.601C149.373 22.8371 148.988 23.0465 148.689 23.2263C147.177 24.1334 145.506 25.4873 145.02 27.2371C144.555 28.9077 144.646 30.8239 145.958 32.1121C146.406 32.5523 147.3 32.9199 147.919 32.9199C148.418 32.9199 148.702 32.9132 148.775 32.8985Z" fill="#231F20"/>
<path d="M151.127 30.2246C149.347 30.2246 148.594 28.2239 148.902 26.7036C149.104 25.7173 149.489 24.8853 150.13 24.099C150.13 23.9702 150.506 23.6991 150.594 23.6119C151.392 22.8296 152.748 22.1358 153.885 22.1358C154.507 22.1358 154.454 23.157 154.447 23.5904C154.421 25.0933 154.458 26.674 154.015 28.13C153.659 29.3027 152.66 29.767 151.609 30.2139C151.591 30.2219 151.432 30.2246 151.127 30.2246Z" fill="white"/>
</svg>
