<svg width="250" height="56" viewBox="0 0 250 56" fill="none" xmlns="http://www.w3.org/2000/svg">
<path fill-rule="evenodd" clip-rule="evenodd" d="M3.2598 16.0607V2.05115H7.0092C9.19163 2.05115 11.4695 2.09792 13.2731 3.42484C15.077 4.70633 15.9774 6.85773 15.9774 9.00914C15.9774 11.0242 15.2184 12.8095 13.653 14.1832C11.8021 15.7854 9.71363 16.0607 7.38817 16.0607H3.2598ZM3.2598 18.1119H7.29368C10.0937 18.1119 13.0825 17.7471 15.2655 15.923C17.2667 14.3208 18.2694 11.5735 18.2694 9.10135C18.2694 6.40073 17.2192 3.79099 15.0289 2.00572C12.798 0.181698 10.0937 -3.8147e-05 7.29368 -3.8147e-05H0.967773V34.5215H3.2598V18.1119Z" fill="#231F20"/>
<path fill-rule="evenodd" clip-rule="evenodd" d="M35.3568 22.714H22.9837L29.1916 7.98823L35.3568 22.714ZM36.1122 24.515L40.3486 34.5215H42.4041L29.1916 3.05201L15.9375 34.5215H17.9936L22.229 24.515H36.1122Z" fill="#231F20"/>
<path fill-rule="evenodd" clip-rule="evenodd" d="M49.733 34.5215H47.7318V5.85419H39.5518V4.05289H57.9135V5.85419H49.733V34.5215Z" fill="#231F20"/>
<path fill-rule="evenodd" clip-rule="evenodd" d="M63.5563 18.311V5.85419H64.8613C66.7138 5.85419 68.8608 5.77268 70.5441 6.54371C72.8179 7.51786 73.913 9.78954 73.913 12.0625C73.913 13.8879 73.1969 15.7132 71.6816 16.8918C70.0816 18.2308 68.1029 18.311 66.1251 18.311H63.5563ZM66.8402 20.1123C72.1028 20.1938 75.9144 17.4598 75.9144 12.1441C75.9144 9.54633 74.9962 7.11163 72.7344 5.57224C70.587 4.09298 68.0601 4.05289 65.4935 4.05289H61.5557V34.5215H63.5563V20.1123H64.5664L74.9138 34.5215H77.214L66.8402 20.1123Z" fill="#231F20"/>
<path fill-rule="evenodd" clip-rule="evenodd" d="M84.0262 34.5215H82.0254V4.05289H84.0262V34.5215Z" fill="#231F20"/>
<path fill-rule="evenodd" clip-rule="evenodd" d="M110.202 32.7202V34.5215H87.9326L107.224 5.85419H89.7773V4.05289H110.747L91.455 32.7202H110.202Z" fill="#231F20"/>
<path fill-rule="evenodd" clip-rule="evenodd" d="M116.661 34.5215H114.659V4.05289H116.661V34.5215Z" fill="#231F20"/>
<path fill-rule="evenodd" clip-rule="evenodd" d="M139.687 22.714H127.313L133.52 7.98823L139.687 22.714ZM140.441 24.515L144.678 34.5215H146.733L133.52 3.05201L120.266 34.5215H122.321L126.558 24.515H140.441Z" fill="#231F20"/>
<path fill-rule="evenodd" clip-rule="evenodd" d="M173.24 16.0607V2.05115H176.989C179.171 2.05115 181.449 2.09792 183.252 3.42484C185.054 4.70633 185.958 6.85773 185.958 9.00914C185.958 11.0242 185.197 12.8095 183.633 14.1832C181.78 15.7854 179.693 16.0607 177.368 16.0607H173.24ZM173.24 18.1119H177.272C180.074 18.1119 183.063 17.7471 185.245 15.923C187.247 14.3208 188.249 11.5735 188.249 9.10135C188.249 6.40073 187.199 3.79099 185.008 2.00572C182.777 0.181698 180.074 -3.8147e-05 177.272 -3.8147e-05H170.947V34.5215H173.24V18.1119Z" fill="#231F20"/>
<path fill-rule="evenodd" clip-rule="evenodd" d="M194.921 5.85419V16.9613H207.673V18.7613H194.921V32.7202H208.008V34.5215H192.919V4.05289H208.008V5.85419H194.921Z" fill="#231F20"/>
<path fill-rule="evenodd" clip-rule="evenodd" d="M216.187 18.2615V5.85419H219.507C221.438 5.85419 223.454 5.89427 225.051 7.0702C226.646 8.20603 227.444 10.1116 227.444 12.0171C227.444 13.801 226.772 15.3819 225.386 16.5992C223.749 18.017 221.901 18.2615 219.842 18.2615H216.187ZM216.187 20.0628H219.758C222.237 20.0628 224.882 19.7421 226.815 18.1399C228.571 16.7195 229.447 14.2874 229.447 12.0986C229.447 9.70534 228.529 7.39492 226.604 5.81277C224.63 4.21191 222.237 4.05289 219.758 4.05289H214.186V34.5215H216.187V20.0628Z" fill="#231F20"/>
<path fill-rule="evenodd" clip-rule="evenodd" d="M235.987 5.85419V16.9613H248.74V18.7613H235.987V32.7202H249.075V34.5215H233.984V4.05289H249.075V5.85419H235.987Z" fill="#231F20"/>
<path fill-rule="evenodd" clip-rule="evenodd" d="M0.920254 41.9119V46.9402H5.67239V47.7655H0.920254V54.9453H0V41.0866H5.80602V41.9119H0.920254Z" fill="#231F20"/>
<path fill-rule="evenodd" clip-rule="evenodd" d="M40.309 54.9453H39.3887V41.0866H40.309V54.9453Z" fill="#231F20"/>
<path fill-rule="evenodd" clip-rule="evenodd" d="M75.996 47.5651V41.9119H76.5858C77.4226 41.9119 78.3941 41.8749 79.1556 42.2246C80.1839 42.6672 80.6782 43.6981 80.6782 44.7291C80.6782 45.5585 80.3551 46.3863 79.6693 46.9208C78.9457 47.5279 78.0516 47.5651 77.1569 47.5651H75.996ZM77.4801 48.3907C79.8597 48.4283 81.5995 47.1782 81.5995 44.7661C81.5995 43.587 81.1773 42.4824 80.1453 41.7835C79.1739 41.1044 78.0327 41.0866 76.8714 41.0866H75.0742V54.9453H75.996V48.3907H76.4527L81.1392 54.9453H82.1915L77.4801 48.3907Z" fill="#231F20"/>
<path fill-rule="evenodd" clip-rule="evenodd" d="M115.842 41.9119V46.9402H121.643V47.7655H115.842V54.119H121.797V54.9453H114.922V41.0866H121.797V41.9119H115.842Z" fill="#231F20"/>
<path fill-rule="evenodd" clip-rule="evenodd" d="M168.109 55.3945L156.052 43.0413V54.9446H155.131V40.9106L167.188 53.1792V41.0859H168.109V55.3945Z" fill="#231F20"/>
<path fill-rule="evenodd" clip-rule="evenodd" d="M210.558 54.119V54.9453H200.424L209.202 41.9119H201.264V41.0866H210.805L202.029 54.119H210.558Z" fill="#231F20"/>
<path fill-rule="evenodd" clip-rule="evenodd" d="M244.047 41.9119V46.9402H249.849V47.7655H244.047V54.119H250V54.9453H243.128V41.0866H250V41.9119H244.047Z" fill="#231F20"/>
</svg>
