<svg width="200" height="35" viewBox="0 0 238 41" fill="none" xmlns="http://www.w3.org/2000/svg">
<path d="M24.1273 18.4729L8.34303 18.4525V7.09561H23.6763C23.6763 7.09561 29.8773 6.53358 29.8773 12.9538C29.8773 18.9809 24.1273 18.4729 24.1273 18.4729ZM38.1074 12.7283C38.1074 1.46403 27.8477 0.788311 27.8477 0.788311H0V38.8611L8.45589 39.0859V24.3302C8.45589 24.3302 14.9951 24.3302 27.1713 24.3302C39.3478 24.3302 38.1074 12.7283 38.1074 12.7283Z" fill="#231F20"/>
<path d="M60.9935 39.0859H51.5234V0.900894H60.9935V39.0859Z" fill="#231F20"/>
<path d="M110.827 39.0859H119.621V0.900894H110.827L110.882 29.2861L87.2634 0.900894H85.3467H76.5527V39.0859H85.3467V10.9261L109.699 39.0859H110.827Z" fill="#231F20"/>
<path d="M181.749 39.0859L154.465 19.0355L178.593 1.01319H166.19L143.636 18.504V0.900894H134.729V39.0859H143.636V20.2012L169.235 39.0859H181.749Z" fill="#231F20"/>
<path d="M214.63 34.6913C212.387 34.6913 210.004 34.6913 210.004 34.6913C210.004 34.6913 196.263 34.2709 196.263 20.1229C196.263 20.1229 196.963 6.11447 209.162 6.11447H213.649C213.649 6.11447 228.23 5.69411 228.23 19.4223C228.23 33.1501 216.873 34.6913 214.63 34.6913ZM216.468 0.000396729H209.703C185.464 0.000396729 186.929 20.9516 186.929 20.9516V21.7401C186.929 41.002 209.027 41.002 209.027 41.002H216.468C236.649 41.002 238.002 21.853 238.002 21.853V17.9105C238.002 0.563824 216.468 0.000396729 216.468 0.000396729Z" fill="#231F20"/>
</svg>
