<svg width="82" height="25" viewBox="0 0 82 25" fill="none" xmlns="http://www.w3.org/2000/svg">
<path d="M63.9541 0.341797H81.2828V6.84865H76.4198V24.3144H68.8171V6.84865H63.9541V0.341797ZM64.639 6.19796H69.502V23.6637H75.7349V6.19796H80.5979V0.992482H64.639V6.19796ZM65.6664 2.01988H79.5705V5.17056H74.7075V22.6363H70.5294V5.17056H65.6664V2.01988Z" fill="white"/>
<path d="M43.1436 0.341797H52.2874C53.1321 0.341797 54.091 0.501614 55.1641 0.821249C56.2371 1.14088 57.2417 1.666 58.1778 2.39659C59.1367 3.10435 59.9358 4.02901 60.575 5.17056C61.2143 6.31212 61.5339 7.69339 61.5339 9.3144C61.5339 10.8897 61.2599 12.2482 60.712 13.3897C60.1641 14.5085 59.3536 15.456 58.2805 16.2322L63.2805 24.3144H54.6161L50.8833 18.2528H50.6778V24.3144H43.1436V0.341797ZM50.6778 11.9171H51.5682C52.2075 11.9171 52.744 11.666 53.1778 11.1637C53.6116 10.6614 53.8285 10.0564 53.8285 9.34865C53.8285 8.98335 53.76 8.64088 53.623 8.32125C53.486 8.00161 53.3148 7.73906 53.1093 7.53358C52.9038 7.30527 52.6641 7.13403 52.3901 7.01988C52.139 6.88289 51.8764 6.8144 51.6024 6.8144H50.6778V11.9171ZM43.8285 23.6637H49.9929V17.6021H51.2942L55.0271 23.6637H62.1161C61.3399 22.3852 60.5408 21.1066 59.7189 19.8281C58.9198 18.5496 58.1435 17.2939 57.3901 16.061C58.5316 15.2391 59.3878 14.2802 59.9586 13.1843C60.5522 12.0884 60.849 10.7984 60.849 9.3144C60.849 7.80755 60.5522 6.52901 59.9586 5.47878C59.365 4.42856 58.6344 3.57239 57.7668 2.91029C56.8992 2.22536 55.9632 1.73449 54.9586 1.43769C53.9769 1.14088 53.0865 0.992482 52.2874 0.992482H43.8285V23.6637ZM49.9929 6.16371H51.6024C51.9449 6.16371 52.2874 6.24362 52.6298 6.40344C52.9951 6.56326 53.3148 6.78015 53.5887 7.05413C53.8627 7.3281 54.0796 7.65915 54.2394 8.04728C54.4221 8.4354 54.5134 8.86919 54.5134 9.34865C54.5134 9.78244 54.4335 10.1934 54.2737 10.5815C54.1367 10.9697 53.9312 11.3121 53.6572 11.6089C53.3833 11.9057 53.0636 12.1454 52.6983 12.3281C52.3559 12.4879 51.9792 12.5678 51.5682 12.5678H49.9929V6.16371ZM44.8559 2.01988H52.2874C52.9951 2.01988 53.7828 2.15687 54.6504 2.43084C55.518 2.68198 56.3285 3.10435 57.0819 3.69796C57.8581 4.26874 58.5088 5.02216 59.0339 5.95824C59.559 6.87148 59.8216 7.9902 59.8216 9.3144C59.8216 10.6158 59.5476 11.803 58.9997 12.876C58.4517 13.9263 57.4586 14.8966 56.0202 15.787L58.212 19.3829C58.5773 19.9765 58.9198 20.5244 59.2394 21.0267C59.5819 21.5062 59.9357 22.0427 60.301 22.6363H55.6435L51.8764 16.5747H48.9655V22.6363H44.8559V2.01988ZM48.9655 13.5952H51.5682C52.1161 13.5952 52.6298 13.4811 53.1093 13.2528C53.6116 13.0244 54.0339 12.7162 54.3764 12.3281C54.7417 11.94 55.0271 11.4948 55.2326 10.9925C55.438 10.4674 55.5408 9.91942 55.5408 9.34865C55.5408 8.73221 55.4266 8.16143 55.1983 7.63632C54.97 7.1112 54.6618 6.666 54.2737 6.3007C53.9084 5.9354 53.486 5.65002 53.0065 5.44454C52.5499 5.23906 52.0819 5.13632 51.6024 5.13632H48.9655V13.5952Z" fill="white"/>
<path d="M15.3936 12.5C15.3936 10.7648 15.7018 9.14383 16.3182 7.63699C16.9575 6.10731 17.8251 4.7831 18.9209 3.66438C20.0397 2.52283 21.3524 1.63242 22.8593 0.99315C24.3661 0.33105 25.9871 0 27.7223 0C29.4574 0 31.0784 0.33105 32.5853 0.99315C34.0921 1.63242 35.3935 2.52283 36.4894 3.66438C37.6081 4.7831 38.4757 6.10731 39.0921 7.63699C39.7314 9.14383 40.051 10.7648 40.051 12.5C40.051 14.2352 39.7314 15.8676 39.0921 17.3973C38.4757 18.9041 37.6081 20.2283 36.4894 21.3699C35.3935 22.4886 34.0921 23.379 32.5853 24.0411C31.0784 24.6804 29.4574 25 27.7223 25C25.9871 25 24.3661 24.6804 22.8593 24.0411C21.3524 23.379 20.0397 22.4886 18.9209 21.3699C17.8251 20.2283 16.9575 18.9041 16.3182 17.3973C15.7018 15.8676 15.3936 14.2352 15.3936 12.5ZM22.9963 12.5C22.9963 13.1849 23.1104 13.8242 23.3387 14.4178C23.5899 15.0114 23.9209 15.5251 24.3319 15.9589C24.7657 16.3927 25.268 16.7352 25.8387 16.9863C26.4323 17.2374 27.0602 17.363 27.7223 17.363C28.3844 17.363 29.0008 17.2374 29.5716 16.9863C30.1652 16.7352 30.6675 16.3927 31.0784 15.9589C31.5122 15.5251 31.8547 15.0114 32.1058 14.4178C32.357 13.8242 32.4826 13.1849 32.4826 12.5C32.4826 11.8151 32.357 11.1758 32.1058 10.5822C31.8547 9.98858 31.5122 9.47489 31.0784 9.0411C30.6675 8.60731 30.1652 8.26484 29.5716 8.0137C29.0008 7.76256 28.3844 7.63699 27.7223 7.63699C27.0602 7.63699 26.4323 7.76256 25.8387 8.0137C25.268 8.26484 24.7657 8.60731 24.3319 9.0411C23.9209 9.47489 23.5899 9.98858 23.3387 10.5822C23.1104 11.1758 22.9963 11.8151 22.9963 12.5ZM16.0785 12.5C16.0785 14.1438 16.3753 15.6849 16.9689 17.1233C17.5625 18.5616 18.3844 19.8174 19.4346 20.8904C20.4849 21.9635 21.7177 22.8082 23.1333 23.4247C24.5488 24.0411 26.0785 24.3493 27.7223 24.3493C29.3661 24.3493 30.8958 24.0411 32.3113 23.4247C33.7268 22.8082 34.9597 21.9635 36.0099 20.8904C37.0602 19.8174 37.8821 18.5616 38.4757 17.1233C39.0693 15.6849 39.3661 14.1438 39.3661 12.5C39.3661 10.8562 39.0693 9.31507 38.4757 7.87671C37.8821 6.43836 37.0602 5.18265 36.0099 4.10959C34.9597 3.03653 33.7268 2.19178 32.3113 1.57534C30.8958 0.958904 29.3661 0.650685 27.7223 0.650685C26.0785 0.650685 24.5488 0.958904 23.1333 1.57534C21.7177 2.19178 20.4849 3.03653 19.4346 4.10959C18.3844 5.18265 17.5625 6.43836 16.9689 7.87671C16.3753 9.31507 16.0785 10.8562 16.0785 12.5ZM22.3113 12.5C22.3113 11.7237 22.4483 11.0046 22.7223 10.3425C22.9963 9.65753 23.373 9.06393 23.8524 8.56164C24.3547 8.05936 24.9369 7.67123 25.599 7.39726C26.2611 7.12329 26.9689 6.9863 27.7223 6.9863C28.4757 6.9863 29.1835 7.12329 29.8456 7.39726C30.5077 7.67123 31.0784 8.05936 31.5579 8.56164C32.0602 9.06393 32.4483 9.65753 32.7223 10.3425C33.0191 11.0046 33.1675 11.7237 33.1675 12.5C33.1675 13.2991 33.0191 14.0297 32.7223 14.6918C32.4483 15.3539 32.0602 15.9361 31.5579 16.4384C31.0784 16.9406 30.5077 17.3288 29.8456 17.6027C29.1835 17.8767 28.4757 18.0137 27.7223 18.0137C26.9689 18.0137 26.2611 17.8767 25.599 17.6027C24.9369 17.3288 24.3547 16.9406 23.8524 16.4384C23.373 15.9361 22.9963 15.3539 22.7223 14.6918C22.4483 14.0297 22.3113 13.2991 22.3113 12.5ZM17.1059 12.5C17.1059 10.9931 17.3799 9.58904 17.9278 8.28767C18.4757 6.96347 19.2177 5.82192 20.1538 4.86301C21.1127 3.88128 22.2314 3.10502 23.51 2.53425C24.8113 1.96347 26.2154 1.67808 27.7223 1.67808C29.2291 1.67808 30.6218 1.96347 31.9004 2.53425C33.2017 3.10502 34.3204 3.88128 35.2565 4.86301C36.2154 5.82192 36.9688 6.96347 37.5168 8.28767C38.0647 9.58904 38.3387 10.9931 38.3387 12.5C38.3387 14.0068 38.0647 15.4224 37.5168 16.7466C36.9688 18.0479 36.2154 19.1895 35.2565 20.1712C34.3204 21.1301 33.2017 21.895 31.9004 22.4658C30.6218 23.0365 29.2291 23.3219 27.7223 23.3219C26.2154 23.3219 24.8113 23.0365 23.51 22.4658C22.2314 21.895 21.1127 21.1301 20.1538 20.1712C19.2177 19.1895 18.4757 18.0479 17.9278 16.7466C17.3799 15.4224 17.1059 14.0068 17.1059 12.5ZM21.2839 12.5C21.2839 13.4361 21.4438 14.3037 21.7634 15.1027C22.1059 15.9018 22.5625 16.5982 23.1333 17.1918C23.7269 17.7626 24.4118 18.2192 25.1881 18.5616C25.9643 18.8813 26.8091 19.0411 27.7223 19.0411C28.6355 19.0411 29.4803 18.8813 30.2565 18.5616C31.0556 18.2192 31.7405 17.7626 32.3113 17.1918C32.9049 16.5982 33.3615 15.9018 33.6812 15.1027C34.0236 14.3037 34.1949 13.4361 34.1949 12.5C34.1949 11.5639 34.0236 10.6963 33.6812 9.89726C33.3615 9.09817 32.9049 8.41324 32.3113 7.84246C31.7405 7.24886 31.0556 6.79224 30.2565 6.4726C29.4803 6.13014 28.6355 5.9589 27.7223 5.9589C26.8091 5.9589 25.9643 6.13014 25.1881 6.4726C24.4118 6.79224 23.7269 7.24886 23.1333 7.84246C22.5625 8.41324 22.1059 9.09817 21.7634 9.89726C21.4438 10.6963 21.2839 11.5639 21.2839 12.5Z" fill="white"/>
<path d="M0 0.341797H12.8082V6.78015H7.60272V10.2391H12.4657V16.4719H7.60272V24.3144H0V0.341797ZM0.68493 23.6637H6.91779V15.8212H11.7808V10.8897H6.91779V6.12947H12.1233V0.992482H0.68493V23.6637ZM1.71232 2.01988H11.0959V5.10207H5.8904V11.9171H10.7534V14.7938H5.8904V22.6363H1.71232V2.01988Z" fill="white"/>
</svg>
