<svg width="366" height="20" viewBox="0 0 366 20" fill="none" xmlns="http://www.w3.org/2000/svg">
<path d="M5.60124 9.63696C6.1168 9.72889 6.57293 9.81189 6.9738 9.85763C7.36995 9.90397 7.7015 9.93171 7.98692 9.93171C8.99106 9.93171 9.86175 9.53555 10.5944 8.76156C11.3223 7.97858 11.6905 6.97423 11.6905 5.73056C11.6905 4.88289 11.5156 4.09104 11.165 3.35365C10.815 2.62595 10.327 2.08245 9.68688 1.71408C9.04633 1.35479 8.31847 1.17038 7.50817 1.17038C7.01517 1.17038 6.37939 1.27179 5.60124 1.4562V9.63696ZM5.60124 10.4657V16.2052C5.60124 17.4399 5.73946 18.2044 6.01103 18.5082C6.37939 18.9323 6.93699 19.144 7.68305 19.144H8.43829V19.6875H0V19.144H0.746101C1.575 19.144 2.16919 18.8766 2.52867 18.3333C2.71743 18.0384 2.81884 17.3201 2.81884 16.2052V3.48295C2.81884 2.24805 2.6899 1.47461 2.42251 1.17038C2.04936 0.74675 1.4829 0.535009 0.746101 0.535009H0V0.000638962H7.21763C8.97742 0.000638962 10.3637 0.175516 11.3863 0.543934C12.4 0.912298 13.2565 1.52075 13.9565 2.3774C14.6523 3.24332 14.9975 4.26592 14.9975 5.4452C14.9975 7.04791 14.4725 8.35633 13.413 9.36047C12.3538 10.3647 10.8519 10.8713 8.91759 10.8713C8.43829 10.8713 7.92709 10.8345 7.37882 10.7699C6.82625 10.7053 6.23184 10.6039 5.60124 10.4657Z" fill="#231F20"/>
<path d="M35.4401 9.12992H44.5885V3.50141C44.5885 2.48768 44.5237 1.82457 44.3991 1.51127C44.3024 1.27179 44.1002 1.05985 43.7912 0.88497C43.3723 0.654823 42.9346 0.535009 42.4696 0.535009H41.769V0.000638962H50.1942V0.535009H49.4984C49.0334 0.535009 48.5909 0.645342 48.1764 0.866564C47.868 1.02324 47.6515 1.26266 47.5453 1.57602C47.435 1.88917 47.375 2.53387 47.375 3.50141V16.2052C47.375 17.2002 47.4395 17.854 47.5638 18.1767C47.6608 18.4163 47.8585 18.6281 48.1627 18.8031C48.5863 19.0333 49.0334 19.144 49.4984 19.144H50.1942V19.6875H41.769V19.144H42.4696C43.2709 19.144 43.8605 18.9046 44.229 18.4348C44.4686 18.1305 44.5885 17.3842 44.5885 16.2052V10.2076H35.4401V16.2052C35.4401 17.2002 35.5047 17.854 35.6336 18.1767C35.7259 18.4163 35.9283 18.6281 36.242 18.8031C36.656 19.0333 37.0985 19.144 37.5637 19.144H38.273V19.6875H29.8389V19.144H30.5347C31.3497 19.144 31.9393 18.9046 32.3082 18.4348C32.5383 18.1305 32.6581 17.3842 32.6581 16.2052V3.50141C32.6581 2.48768 32.5935 1.82457 32.4648 1.51127C32.3723 1.27179 32.1701 1.05985 31.8751 0.88497C31.4422 0.654823 30.9997 0.535009 30.5347 0.535009H29.8389V0.000638962H38.273V0.535009H37.5637C37.0985 0.535009 36.656 0.645342 36.242 0.866564C35.9378 1.02324 35.735 1.26266 35.6152 1.57602C35.5047 1.88917 35.4401 2.53387 35.4401 3.50141V9.12992Z" fill="#231F20"/>
<path d="M74.3728 19.144V19.6875H65.9346V19.144H66.6343C67.4456 19.144 68.0347 18.9046 68.4034 18.4348C68.6336 18.1305 68.7492 17.3842 68.7492 16.2052V3.48295C68.7492 2.48768 68.6893 1.82457 68.56 1.51127C68.4678 1.27179 68.2649 1.05985 67.9703 0.88497C67.5419 0.654823 67.0952 0.535009 66.6343 0.535009H65.9346V0.000638962H74.3728V0.535009H73.6593C72.8531 0.535009 72.2675 0.77408 71.904 1.25339C71.6555 1.55761 71.5404 2.30372 71.5404 3.48295V16.2052C71.5404 17.2002 71.5997 17.854 71.729 18.1767C71.8259 18.4163 72.0287 18.6281 72.337 18.8031C72.7517 19.0333 73.1939 19.144 73.6593 19.144H74.3728Z" fill="#231F20"/>
<path d="M106.528 14.2429L107.007 14.3443L105.325 19.6875H90.0791V19.144H90.8163C91.6545 19.144 92.2487 18.8766 92.6032 18.3333C92.8105 18.02 92.9119 17.3107 92.9119 16.1867V3.48295C92.9119 2.25753 92.7786 1.48353 92.5068 1.17038C92.124 0.74675 91.5622 0.535009 90.8163 0.535009H90.0791V0.000638962H98.9924V0.535009C97.9464 0.525476 97.2142 0.626886 96.7949 0.829702C96.371 1.03211 96.0855 1.28112 95.9293 1.59442C95.7722 1.90757 95.6986 2.64435 95.6986 3.8145V16.1867C95.6986 16.9881 95.7722 17.5409 95.9293 17.8451C96.0485 18.0479 96.2239 18.1951 96.4678 18.287C96.7122 18.3884 97.4672 18.4348 98.7297 18.4348H100.171C101.678 18.4348 102.737 18.3242 103.349 18.103C103.962 17.882 104.515 17.4856 105.022 16.9144C105.52 16.3527 106.026 15.4589 106.528 14.2429Z" fill="#231F20"/>
<path d="M130.111 19.144V19.6875H121.673V19.144H122.368C123.179 19.144 123.778 18.9046 124.142 18.4348C124.372 18.1305 124.487 17.3842 124.487 16.2052V3.48295C124.487 2.48768 124.427 1.82457 124.303 1.51127C124.201 1.27179 124.008 1.05985 123.704 0.88497C123.28 0.654823 122.838 0.535009 122.368 0.535009H121.673V0.000638962H130.111V0.535009H129.398C128.591 0.535009 128.006 0.77408 127.638 1.25339C127.398 1.55761 127.278 2.30372 127.278 3.48295V16.2052C127.278 17.2002 127.343 17.854 127.467 18.1767C127.564 18.4163 127.767 18.6281 128.075 18.8031C128.494 19.0333 128.927 19.144 129.398 19.144H130.111Z" fill="#231F20"/>
<path d="M151.324 9.63696C151.835 9.72889 152.291 9.81189 152.687 9.85763C153.083 9.90397 153.424 9.93171 153.7 9.93171C154.714 9.93171 155.58 9.53555 156.308 8.76156C157.035 7.97858 157.404 6.97423 157.404 5.73056C157.404 4.88289 157.234 4.09104 156.884 3.35365C156.538 2.62595 156.04 2.08245 155.405 1.71408C154.765 1.35479 154.037 1.17038 153.221 1.17038C152.733 1.17038 152.098 1.27179 151.324 1.4562V9.63696ZM151.324 10.4657V16.2052C151.324 17.4399 151.457 18.2044 151.729 18.5082C152.098 18.9323 152.65 19.144 153.396 19.144H154.152V19.6875H145.723V19.144H146.459C147.293 19.144 147.888 18.8766 148.247 18.3333C148.44 18.0384 148.533 17.3201 148.533 16.2052V3.48295C148.533 2.24805 148.404 1.47461 148.141 1.17038C147.768 0.74675 147.206 0.535009 146.459 0.535009H145.723V0.000638962H152.936C154.695 0.000638962 156.087 0.175516 157.1 0.543934C158.118 0.912298 158.97 1.52075 159.67 2.3774C160.371 3.24332 160.716 4.26592 160.716 5.4452C160.716 7.04791 160.186 8.35633 159.127 9.36047C158.068 10.3647 156.566 10.8713 154.635 10.8713C154.157 10.8713 153.646 10.8345 153.093 10.7699C152.54 10.7053 151.95 10.6039 151.324 10.4657Z" fill="#231F20"/>
<path d="M181.145 9.63696C181.66 9.72889 182.112 9.81189 182.508 9.85763C182.909 9.90397 183.245 9.93171 183.526 9.93171C184.535 9.93171 185.401 9.53555 186.129 8.76156C186.866 7.97858 187.234 6.97423 187.234 5.73056C187.234 4.88289 187.055 4.09104 186.704 3.35365C186.359 2.62595 185.866 2.08245 185.226 1.71408C184.59 1.35479 183.862 1.17038 183.052 1.17038C182.554 1.17038 181.918 1.27179 181.145 1.4562V9.63696ZM181.145 10.4657V16.2052C181.145 17.4399 181.283 18.2044 181.55 18.5082C181.918 18.9323 182.476 19.144 183.218 19.144H183.978V19.6875H175.544V19.144H176.281C177.114 19.144 177.708 18.8766 178.067 18.3333C178.261 18.0384 178.353 17.3201 178.353 16.2052V3.48295C178.353 2.24805 178.229 1.47461 177.966 1.17038C177.589 0.74675 177.027 0.535009 176.281 0.535009H175.544V0.000638962H182.757C184.517 0.000638962 185.907 0.175516 186.921 0.543934C187.939 0.912298 188.801 1.52075 189.491 2.3774C190.191 3.24332 190.541 4.26592 190.541 5.4452C190.541 7.04791 190.011 8.35633 188.948 9.36047C187.888 10.3647 186.392 10.8713 184.457 10.8713C183.982 10.8713 183.466 10.8345 182.914 10.7699C182.365 10.7053 181.771 10.6039 181.145 10.4657Z" fill="#231F20"/>
<path d="M232.795 9.63696C233.307 9.72889 233.762 9.81189 234.159 9.85763C234.555 9.90397 234.896 9.93171 235.176 9.93171C236.181 9.93171 237.047 9.53555 237.78 8.76156C238.512 7.97858 238.875 6.97423 238.875 5.73056C238.875 4.88289 238.705 4.09104 238.355 3.35365C238.005 2.62595 237.512 2.08245 236.872 1.71408C236.236 1.35479 235.508 1.17038 234.698 1.17038C234.2 1.17038 233.564 1.27179 232.795 1.4562V9.63696ZM232.795 10.4657V16.2052C232.795 17.4399 232.929 18.2044 233.2 18.5082C233.565 18.9323 234.127 19.144 234.873 19.144H235.628V19.6875H227.189V19.144H227.931C228.765 19.144 229.359 18.8766 229.714 18.3333C229.907 18.0384 230.008 17.3201 230.008 16.2052V3.48295C230.008 2.24805 229.875 1.47461 229.612 1.17038C229.235 0.74675 228.673 0.535009 227.931 0.535009H227.189V0.000638962H234.403C236.167 0.000638962 237.553 0.175516 238.567 0.543934C239.59 0.912298 240.446 1.52075 241.137 2.3774C241.837 3.24332 242.188 4.26592 242.188 5.4452C242.188 7.04791 241.658 8.35633 240.594 9.36047C239.534 10.3647 238.042 10.8713 236.102 10.8713C235.628 10.8713 235.112 10.8345 234.568 10.7699C234.012 10.7053 233.426 10.6039 232.795 10.4657Z" fill="#231F20"/>
<path d="M273.564 14.2429L274.038 14.3443L272.357 19.6875H257.11V19.144H257.857C258.686 19.144 259.28 18.8766 259.639 18.3333C259.846 18.02 259.943 17.3107 259.943 16.1867V3.48295C259.943 2.25753 259.81 1.48353 259.538 1.17038C259.165 0.74675 258.599 0.535009 257.857 0.535009H257.11V0.000638962H266.024V0.535009C264.983 0.525476 264.25 0.626886 263.827 0.829702C263.407 1.03211 263.117 1.28112 262.961 1.59442C262.808 1.90757 262.73 2.64435 262.73 3.8145V16.1867C262.73 16.9881 262.808 17.5409 262.961 17.8451C263.08 18.0479 263.255 18.1951 263.504 18.287C263.743 18.3884 264.499 18.4348 265.766 18.4348H267.208C268.713 18.4348 269.773 18.3242 270.381 18.103C270.994 17.882 271.546 17.4856 272.053 16.9144C272.555 16.3527 273.057 15.4589 273.564 14.2429Z" fill="#231F20"/>
<path d="M294.181 1.06898V8.85343H298.506C299.625 8.85343 300.381 8.68788 300.759 8.3468C301.261 7.90491 301.542 7.11245 301.597 5.99798H302.136V12.8424H301.597C301.463 11.8844 301.325 11.2765 301.192 11.0096C301.017 10.6596 300.731 10.4015 300.335 10.2076C299.939 10.0054 299.331 9.91289 298.506 9.91289H294.181V16.3985C294.181 17.2739 294.218 17.8083 294.296 17.9923C294.375 18.1862 294.508 18.3333 294.702 18.4437C294.899 18.5546 295.268 18.6096 295.807 18.6096H299.146C300.261 18.6096 301.068 18.5362 301.569 18.3795C302.076 18.2228 302.56 17.9186 303.021 17.4583C303.624 16.8594 304.232 15.9564 304.867 14.7494H305.448L303.748 19.6875H288.58V19.144H289.271C289.741 19.144 290.178 19.0333 290.597 18.8125C290.901 18.656 291.113 18.4252 291.224 18.1121C291.334 17.8083 291.395 17.1725 291.395 16.2145V3.42733C291.395 2.17458 291.27 1.40986 291.016 1.11512C290.667 0.728294 290.091 0.535009 289.271 0.535009H288.58V0.000638962H303.748L303.965 4.31166H303.398C303.2 3.27065 302.97 2.56176 302.721 2.17458C302.477 1.78776 302.113 1.49281 301.629 1.29C301.238 1.14285 300.556 1.06898 299.579 1.06898H294.181Z" fill="#231F20"/>
<path d="M329.696 19.144V19.6875H321.257V19.144H321.958C322.768 19.144 323.357 18.9046 323.726 18.4348C323.956 18.1305 324.076 17.3842 324.076 16.2052V3.48295C324.076 2.48768 324.012 1.82457 323.887 1.51127C323.791 1.27179 323.593 1.05985 323.293 0.88497C322.865 0.654823 322.417 0.535009 321.958 0.535009H321.257V0.000638962H329.696V0.535009H328.986C328.175 0.535009 327.595 0.77408 327.227 1.25339C326.987 1.55761 326.863 2.30372 326.863 3.48295V16.2052C326.863 17.2002 326.923 17.854 327.052 18.1767C327.144 18.4163 327.351 18.6281 327.66 18.8031C328.074 19.0333 328.517 19.144 328.986 19.144H329.696Z" fill="#231F20"/>
<path d="M344.418 0H349.761L361.801 14.7583V3.40823C361.801 2.20168 361.663 1.44603 361.392 1.14221C361.033 0.73658 360.466 0.534372 359.692 0.534372H359.01V0H365.864V0.534372H365.164C364.335 0.534372 363.745 0.782925 363.396 1.28936C363.179 1.60271 363.073 2.30309 363.073 3.40823V20H362.548L349.572 4.14542V16.2691C349.572 17.485 349.706 18.2406 349.964 18.5355C350.332 18.9406 350.898 19.1434 351.668 19.1434H352.359V19.6869H345.509V19.1434H346.187C347.034 19.1434 347.629 18.8944 347.974 18.3973C348.185 18.0841 348.296 17.3747 348.296 16.2691V2.57957C347.725 1.91586 347.292 1.47397 346.997 1.26203C346.703 1.04993 346.27 0.847521 345.698 0.672592C345.417 0.580107 344.989 0.534372 344.418 0.534372V0Z" fill="#231F20"/>
</svg>
