<svg width="24" height="20" viewBox="0 0 24 20" fill="none" xmlns="http://www.w3.org/2000/svg">
<path d="M4.42777 20C4.12127 20 3.84182 19.9081 3.58941 19.7242C3.33701 19.5396 3.16573 19.2982 3.07558 19L0.0466914 8.36842C-0.0434542 8.12281 -0.0030689 7.89474 0.167847 7.68421C0.339484 7.47368 0.569536 7.36842 0.858002 7.36842H6.32083L11.0805 0.473684C11.1707 0.333333 11.2969 0.219298 11.4591 0.131579C11.6214 0.0438596 11.7927 0 11.973 0C12.1532 0 12.3245 0.0438596 12.4868 0.131579C12.649 0.219298 12.7753 0.333333 12.8654 0.473684L17.6251 7.36842H23.142C23.4305 7.36842 23.6605 7.47368 23.8322 7.68421C24.0031 7.89474 24.0435 8.12281 23.9533 8.36842L20.9244 19C20.8343 19.2982 20.663 19.5396 20.4106 19.7242C20.1582 19.9081 19.8787 20 19.5722 20H4.42777ZM8.94406 7.36842H15.0289L11.973 2.94737L8.94406 7.36842ZM12 15.7895C12.595 15.7895 13.1045 15.5835 13.5285 15.1716C13.9518 14.7589 14.1635 14.2632 14.1635 13.6842C14.1635 13.1053 13.9518 12.6095 13.5285 12.1968C13.1045 11.7849 12.595 11.5789 12 11.5789C11.405 11.5789 10.8959 11.7849 10.4726 12.1968C10.0485 12.6095 9.8365 13.1053 9.8365 13.6842C9.8365 14.2632 10.0485 14.7589 10.4726 15.1716C10.8959 15.5835 11.405 15.7895 12 15.7895Z" fill="white"/>
</svg>
