<svg width="24" height="20" viewBox="0 0 24 20" fill="none" xmlns="http://www.w3.org/2000/svg">
<path d="M11.9727 0.5C12.0679 0.5 12.1581 0.522119 12.249 0.571289C12.345 0.623171 12.4045 0.682189 12.4443 0.744141L12.4541 0.757812L17.2139 7.65234L17.3623 7.86816H23.1416C23.2904 7.86816 23.3743 7.91414 23.4443 8V7.99902C23.5091 8.07884 23.5111 8.12337 23.4844 8.19629L23.4775 8.21387L23.4727 8.23145L20.4453 18.8555C20.3867 19.0492 20.2802 19.1997 20.1152 19.3203C19.9468 19.4428 19.7705 19.5 19.5723 19.5H4.42773C4.22922 19.5 4.05237 19.4431 3.88379 19.3203H3.88477C3.76104 19.2298 3.66987 19.1229 3.60742 18.9932L3.55469 18.8555L0.527344 8.23145L0.522461 8.21387L0.515625 8.19629L0.501953 8.14551C0.494374 8.09888 0.5065 8.0585 0.554688 7.99902L0.555664 8C0.625748 7.91414 0.709642 7.86816 0.858398 7.86816H6.58301L6.73242 7.65234L11.4922 0.757812L11.4971 0.750977L11.501 0.744141C11.5408 0.682189 11.6013 0.623171 11.6973 0.571289C11.788 0.522281 11.8776 0.500047 11.9727 0.5ZM12 11.0791C11.2759 11.0791 10.6415 11.3354 10.124 11.8389C9.60571 12.3433 9.33691 12.9674 9.33691 13.6846C9.337 14.4016 9.60573 15.0259 10.124 15.5303C10.6414 16.0336 11.276 16.2891 12 16.2891C12.7241 16.2891 13.3589 16.0335 13.877 15.5303L13.8779 15.5293C14.3952 15.0249 14.663 14.4012 14.6631 13.6846C14.6631 12.9677 14.3953 12.3433 13.8779 11.8389L13.877 11.8379L13.6768 11.6611C13.1984 11.2751 12.6335 11.0791 12 11.0791Z" stroke="white"/>
</svg>
