<svg width="22" height="20" viewBox="0 0 22 20" fill="none" xmlns="http://www.w3.org/2000/svg">
<path d="M15.9502 1C18.7944 1.0001 20.9998 3.1984 21 5.99414C21 7.7226 20.2245 9.37117 18.6504 11.2793C17.0655 13.2005 14.7797 15.2592 11.9277 17.8271L11.002 18.6553L10.0752 17.8184L10.0732 17.8174C7.22053 15.2543 4.93465 13.1974 3.34961 11.2773C1.77574 9.37078 1 7.72258 1 5.99414C1.00022 3.1984 3.20562 1.0001 6.0498 1C7.66434 1 9.22697 1.7497 10.2412 2.92969L11 3.8125L11.7588 2.92969C12.773 1.7497 14.3357 1 15.9502 1Z" stroke="white" stroke-width="2"/>
</svg>
